<mxfile host="app.diagrams.net" modified="2022-08-13T20:34:54.774Z" agent="5.0 (Macintosh; Intel Mac OS X 10_15_7) AppleWebKit/537.36 (KHTML, like Gecko) Chrome/104.0.0.0 Safari/537.36" etag="c9c81W8qX9mTeLBdEnJY" version="20.2.3" type="github">
  <diagram id="C5RBs43oDa-KdzZeNtuy" name="Page-1">
    <mxGraphModel dx="5438" dy="3625" grid="1" gridSize="14" guides="1" tooltips="1" connect="1" arrows="1" fold="1" page="1" pageScale="1" pageWidth="827" pageHeight="1169" math="0" shadow="0">
      <root>
        <mxCell id="WIyWlLk6GJQsqaUBKTNV-0" />
        <mxCell id="WIyWlLk6GJQsqaUBKTNV-1" parent="WIyWlLk6GJQsqaUBKTNV-0" />
        <mxCell id="zBG6iMeN6bACDsRi_Z72-0" value="Animals" style="swimlane;fontStyle=0;childLayout=stackLayout;horizontal=1;startSize=60;horizontalStack=0;resizeParent=1;resizeParentMax=0;resizeLast=0;collapsible=1;marginBottom=0;" vertex="1" parent="WIyWlLk6GJQsqaUBKTNV-1">
          <mxGeometry x="342" y="-490" width="276" height="248" as="geometry" />
        </mxCell>
        <mxCell id="zBG6iMeN6bACDsRi_Z72-1" value="&#xa;+name: string" style="text;strokeColor=none;fillColor=none;align=left;verticalAlign=middle;spacingLeft=4;spacingRight=4;overflow=hidden;points=[[0,0.5],[1,0.5]];portConstraint=eastwest;rotatable=0;" vertex="1" parent="zBG6iMeN6bACDsRi_Z72-0">
          <mxGeometry y="60" width="276" height="40" as="geometry" />
        </mxCell>
        <mxCell id="zBG6iMeN6bACDsRi_Z72-2" value="+age: int&#xa;&#xa;" style="text;strokeColor=none;fillColor=none;align=left;verticalAlign=middle;spacingLeft=4;spacingRight=4;overflow=hidden;points=[[0,0.5],[1,0.5]];portConstraint=eastwest;rotatable=0;" vertex="1" parent="zBG6iMeN6bACDsRi_Z72-0">
          <mxGeometry y="100" width="276" height="30" as="geometry" />
        </mxCell>
        <mxCell id="zBG6iMeN6bACDsRi_Z72-16" value="+height: int&#xa;&#xa;+weight : intÂ &#xa;&#xa;+voice : string&#xa;&#xa;&#xa;" style="text;strokeColor=none;fillColor=none;align=left;verticalAlign=middle;spacingLeft=4;spacingRight=4;overflow=hidden;points=[[0,0.5],[1,0.5]];portConstraint=eastwest;rotatable=0;" vertex="1" parent="zBG6iMeN6bACDsRi_Z72-0">
          <mxGeometry y="130" width="276" height="118" as="geometry" />
        </mxCell>
        <mxCell id="zBG6iMeN6bACDsRi_Z72-31" style="edgeStyle=none;rounded=0;orthogonalLoop=1;jettySize=auto;html=1;exitX=0;exitY=0.5;exitDx=0;exitDy=0;entryX=1;entryY=0.5;entryDx=0;entryDy=0;fontSize=19;startArrow=none;startFill=0;endArrow=none;endFill=0;" edge="1" parent="zBG6iMeN6bACDsRi_Z72-0" source="zBG6iMeN6bACDsRi_Z72-16" target="zBG6iMeN6bACDsRi_Z72-16">
          <mxGeometry relative="1" as="geometry" />
        </mxCell>
        <mxCell id="zBG6iMeN6bACDsRi_Z72-4" value="horses" style="swimlane;fontSize=19;" vertex="1" parent="WIyWlLk6GJQsqaUBKTNV-1">
          <mxGeometry x="-748" y="252" width="200" height="204" as="geometry" />
        </mxCell>
        <mxCell id="zBG6iMeN6bACDsRi_Z72-29" value="&lt;span style=&quot;color: rgb(0, 0, 0); font-family: Nunito, sans-serif; font-size: 16px; font-style: normal; font-variant-ligatures: normal; font-variant-caps: normal; font-weight: 400; letter-spacing: -0.64px; orphans: 2; text-align: left; text-indent: 0px; text-transform: none; widows: 2; word-spacing: 0px; -webkit-text-stroke-width: 0px; background-color: rgb(255, 255, 255); text-decoration-thickness: initial; text-decoration-style: initial; text-decoration-color: initial; float: none; display: inline !important;&quot;&gt;getDosage (horse)&lt;/span&gt;" style="text;html=1;strokeColor=none;fillColor=none;align=center;verticalAlign=middle;whiteSpace=wrap;rounded=0;fontSize=19;" vertex="1" parent="zBG6iMeN6bACDsRi_Z72-4">
          <mxGeometry x="20" y="144" width="134" height="30" as="geometry" />
        </mxCell>
        <mxCell id="zBG6iMeN6bACDsRi_Z72-30" value="&lt;span style=&quot;color: rgb(0, 0, 0); font-family: Nunito, sans-serif; font-size: 16px; font-style: normal; font-variant-ligatures: normal; font-variant-caps: normal; font-weight: 400; letter-spacing: -0.64px; orphans: 2; text-align: left; text-indent: 0px; text-transform: none; widows: 2; word-spacing: 0px; -webkit-text-stroke-width: 0px; background-color: rgb(255, 255, 255); text-decoration-thickness: initial; text-decoration-style: initial; text-decoration-color: initial; float: none; display: inline !important;&quot;&gt;getFeedSchedule (horse)&lt;/span&gt;" style="text;html=1;strokeColor=none;fillColor=none;align=center;verticalAlign=middle;whiteSpace=wrap;rounded=0;fontSize=19;" vertex="1" parent="zBG6iMeN6bACDsRi_Z72-4">
          <mxGeometry y="174" width="186" height="30" as="geometry" />
        </mxCell>
        <mxCell id="zBG6iMeN6bACDsRi_Z72-5" value="" style="endArrow=none;html=1;rounded=0;" edge="1" parent="WIyWlLk6GJQsqaUBKTNV-1">
          <mxGeometry width="50" height="50" relative="1" as="geometry">
            <mxPoint x="-644" y="140" as="sourcePoint" />
            <mxPoint x="1596" y="140" as="targetPoint" />
            <Array as="points" />
          </mxGeometry>
        </mxCell>
        <mxCell id="zBG6iMeN6bACDsRi_Z72-8" style="rounded=0;orthogonalLoop=1;jettySize=auto;html=1;exitX=0.5;exitY=0;exitDx=0;exitDy=0;startArrow=none;startFill=0;endArrow=none;endFill=0;" edge="1" parent="WIyWlLk6GJQsqaUBKTNV-1" source="zBG6iMeN6bACDsRi_Z72-4">
          <mxGeometry relative="1" as="geometry">
            <mxPoint x="-648" y="140" as="targetPoint" />
          </mxGeometry>
        </mxCell>
        <mxCell id="zBG6iMeN6bACDsRi_Z72-23" style="edgeStyle=none;rounded=0;orthogonalLoop=1;jettySize=auto;html=1;exitX=0.5;exitY=0;exitDx=0;exitDy=0;startArrow=none;startFill=0;endArrow=none;endFill=0;" edge="1" parent="WIyWlLk6GJQsqaUBKTNV-1" source="zBG6iMeN6bACDsRi_Z72-19">
          <mxGeometry relative="1" as="geometry">
            <mxPoint x="479.8888888888887" y="140.00000000000045" as="targetPoint" />
          </mxGeometry>
        </mxCell>
        <mxCell id="zBG6iMeN6bACDsRi_Z72-71" style="edgeStyle=none;rounded=0;orthogonalLoop=1;jettySize=auto;html=1;exitX=0;exitY=0.5;exitDx=0;exitDy=0;entryX=0.5;entryY=0;entryDx=0;entryDy=0;fontSize=19;startArrow=none;startFill=0;endArrow=none;endFill=0;" edge="1" parent="WIyWlLk6GJQsqaUBKTNV-1" source="zBG6iMeN6bACDsRi_Z72-90" target="zBG6iMeN6bACDsRi_Z72-65">
          <mxGeometry relative="1" as="geometry" />
        </mxCell>
        <mxCell id="zBG6iMeN6bACDsRi_Z72-72" style="edgeStyle=none;rounded=0;orthogonalLoop=1;jettySize=auto;html=1;exitX=1;exitY=0.75;exitDx=0;exitDy=0;entryX=0.5;entryY=0;entryDx=0;entryDy=0;fontSize=19;startArrow=none;startFill=0;endArrow=none;endFill=0;" edge="1" parent="WIyWlLk6GJQsqaUBKTNV-1" source="zBG6iMeN6bACDsRi_Z72-90" target="zBG6iMeN6bACDsRi_Z72-68">
          <mxGeometry relative="1" as="geometry" />
        </mxCell>
        <mxCell id="zBG6iMeN6bACDsRi_Z72-19" value="reptiles" style="swimlane;fontSize=19;" vertex="1" parent="WIyWlLk6GJQsqaUBKTNV-1">
          <mxGeometry x="336" y="252" width="270" height="200" as="geometry" />
        </mxCell>
        <mxCell id="zBG6iMeN6bACDsRi_Z72-74" value="&lt;span style=&quot;color: rgb(0, 0, 0); font-family: Nunito, sans-serif; font-size: 16px; font-style: normal; font-variant-ligatures: normal; font-variant-caps: normal; font-weight: 400; letter-spacing: -0.64px; orphans: 2; text-align: left; text-indent: 0px; text-transform: none; widows: 2; word-spacing: 0px; -webkit-text-stroke-width: 0px; background-color: rgb(255, 255, 255); text-decoration-thickness: initial; text-decoration-style: initial; text-decoration-color: initial; float: none; display: inline !important;&quot;&gt;getDosage (reptiles)&lt;/span&gt;" style="text;html=1;strokeColor=none;fillColor=none;align=center;verticalAlign=middle;whiteSpace=wrap;rounded=0;fontSize=19;" vertex="1" parent="zBG6iMeN6bACDsRi_Z72-19">
          <mxGeometry x="9" y="140" width="232" height="30" as="geometry" />
        </mxCell>
        <mxCell id="zBG6iMeN6bACDsRi_Z72-75" value="&lt;span style=&quot;color: rgb(0, 0, 0); font-family: Nunito, sans-serif; font-size: 16px; font-style: normal; font-variant-ligatures: normal; font-variant-caps: normal; font-weight: 400; letter-spacing: -0.64px; orphans: 2; text-align: left; text-indent: 0px; text-transform: none; widows: 2; word-spacing: 0px; -webkit-text-stroke-width: 0px; background-color: rgb(255, 255, 255); text-decoration-thickness: initial; text-decoration-style: initial; text-decoration-color: initial; float: none; display: inline !important;&quot;&gt;getFeedSchedule (reptiles)&lt;/span&gt;" style="text;html=1;strokeColor=none;fillColor=none;align=center;verticalAlign=middle;whiteSpace=wrap;rounded=0;fontSize=19;" vertex="1" parent="zBG6iMeN6bACDsRi_Z72-19">
          <mxGeometry x="9" y="170" width="252" height="30" as="geometry" />
        </mxCell>
        <mxCell id="zBG6iMeN6bACDsRi_Z72-22" style="edgeStyle=none;rounded=0;orthogonalLoop=1;jettySize=auto;html=1;exitX=0.5;exitY=0;exitDx=0;exitDy=0;startArrow=none;startFill=0;endArrow=none;endFill=0;" edge="1" parent="WIyWlLk6GJQsqaUBKTNV-1" source="zBG6iMeN6bACDsRi_Z72-20">
          <mxGeometry relative="1" as="geometry">
            <mxPoint x="1596" y="140" as="targetPoint" />
          </mxGeometry>
        </mxCell>
        <mxCell id="zBG6iMeN6bACDsRi_Z72-93" style="edgeStyle=none;rounded=0;orthogonalLoop=1;jettySize=auto;html=1;exitX=0.5;exitY=1;exitDx=0;exitDy=0;entryX=0.25;entryY=0;entryDx=0;entryDy=0;fontSize=19;startArrow=classic;startFill=1;endArrow=none;endFill=0;" edge="1" parent="WIyWlLk6GJQsqaUBKTNV-1" source="zBG6iMeN6bACDsRi_Z72-20" target="zBG6iMeN6bACDsRi_Z72-92">
          <mxGeometry relative="1" as="geometry" />
        </mxCell>
        <mxCell id="zBG6iMeN6bACDsRi_Z72-20" value="felines" style="swimlane;fontSize=19;startSize=23;" vertex="1" parent="WIyWlLk6GJQsqaUBKTNV-1">
          <mxGeometry x="1456" y="252" width="280" height="182" as="geometry" />
        </mxCell>
        <mxCell id="zBG6iMeN6bACDsRi_Z72-88" value="&lt;span style=&quot;color: rgb(0, 0, 0); font-family: Nunito, sans-serif; font-size: 16px; font-style: normal; font-variant-ligatures: normal; font-variant-caps: normal; font-weight: 400; letter-spacing: -0.64px; orphans: 2; text-align: left; text-indent: 0px; text-transform: none; widows: 2; word-spacing: 0px; -webkit-text-stroke-width: 0px; background-color: rgb(255, 255, 255); text-decoration-thickness: initial; text-decoration-style: initial; text-decoration-color: initial; float: none; display: inline !important;&quot;&gt;getFeedSchedule (felines)&lt;/span&gt;" style="text;html=1;strokeColor=none;fillColor=none;align=center;verticalAlign=middle;whiteSpace=wrap;rounded=0;fontSize=19;" vertex="1" parent="zBG6iMeN6bACDsRi_Z72-20">
          <mxGeometry x="14" y="140" width="252" height="30" as="geometry" />
        </mxCell>
        <mxCell id="zBG6iMeN6bACDsRi_Z72-89" value="&lt;span style=&quot;color: rgb(0, 0, 0); font-family: Nunito, sans-serif; font-size: 16px; font-style: normal; font-variant-ligatures: normal; font-variant-caps: normal; font-weight: 400; letter-spacing: -0.64px; orphans: 2; text-align: left; text-indent: 0px; text-transform: none; widows: 2; word-spacing: 0px; -webkit-text-stroke-width: 0px; background-color: rgb(255, 255, 255); text-decoration-thickness: initial; text-decoration-style: initial; text-decoration-color: initial; float: none; display: inline !important;&quot;&gt;getDosage (felines)&lt;/span&gt;" style="text;html=1;strokeColor=none;fillColor=none;align=center;verticalAlign=middle;whiteSpace=wrap;rounded=0;fontSize=19;" vertex="1" parent="zBG6iMeN6bACDsRi_Z72-20">
          <mxGeometry x="24" y="110" width="232" height="30" as="geometry" />
        </mxCell>
        <mxCell id="zBG6iMeN6bACDsRi_Z72-21" style="edgeStyle=none;rounded=0;orthogonalLoop=1;jettySize=auto;html=1;exitX=0.5;exitY=0;exitDx=0;exitDy=0;startArrow=none;startFill=0;endArrow=none;endFill=0;" edge="1" parent="WIyWlLk6GJQsqaUBKTNV-1" source="zBG6iMeN6bACDsRi_Z72-20" target="zBG6iMeN6bACDsRi_Z72-20">
          <mxGeometry relative="1" as="geometry" />
        </mxCell>
        <mxCell id="zBG6iMeN6bACDsRi_Z72-24" value="" style="endArrow=none;html=1;rounded=0;" edge="1" parent="WIyWlLk6GJQsqaUBKTNV-1">
          <mxGeometry width="50" height="50" relative="1" as="geometry">
            <mxPoint x="479.09" y="140" as="sourcePoint" />
            <mxPoint x="479.09" y="10" as="targetPoint" />
          </mxGeometry>
        </mxCell>
        <mxCell id="zBG6iMeN6bACDsRi_Z72-26" value="Extends" style="text;html=1;strokeColor=none;fillColor=none;align=center;verticalAlign=middle;whiteSpace=wrap;rounded=0;fontSize=14;" vertex="1" parent="WIyWlLk6GJQsqaUBKTNV-1">
          <mxGeometry x="450" y="-14" width="60" height="30" as="geometry" />
        </mxCell>
        <mxCell id="zBG6iMeN6bACDsRi_Z72-27" value="" style="endArrow=block;html=1;rounded=0;fontSize=14;entryX=0.481;entryY=1.062;entryDx=0;entryDy=0;entryPerimeter=0;endFill=1;" edge="1" parent="WIyWlLk6GJQsqaUBKTNV-1" target="zBG6iMeN6bACDsRi_Z72-16">
          <mxGeometry width="50" height="50" relative="1" as="geometry">
            <mxPoint x="475" y="-14" as="sourcePoint" />
            <mxPoint x="476" y="-42" as="targetPoint" />
          </mxGeometry>
        </mxCell>
        <mxCell id="zBG6iMeN6bACDsRi_Z72-28" style="edgeStyle=none;rounded=0;orthogonalLoop=1;jettySize=auto;html=1;exitX=0;exitY=0.75;exitDx=0;exitDy=0;entryX=1;entryY=0.75;entryDx=0;entryDy=0;fontSize=19;startArrow=none;startFill=0;endArrow=none;endFill=0;" edge="1" parent="WIyWlLk6GJQsqaUBKTNV-1" source="zBG6iMeN6bACDsRi_Z72-4" target="zBG6iMeN6bACDsRi_Z72-4">
          <mxGeometry relative="1" as="geometry" />
        </mxCell>
        <mxCell id="zBG6iMeN6bACDsRi_Z72-48" style="edgeStyle=none;rounded=0;orthogonalLoop=1;jettySize=auto;html=1;exitX=0.75;exitY=0;exitDx=0;exitDy=0;fontSize=19;startArrow=none;startFill=0;endArrow=none;endFill=0;" edge="1" parent="WIyWlLk6GJQsqaUBKTNV-1" source="zBG6iMeN6bACDsRi_Z72-33">
          <mxGeometry relative="1" as="geometry">
            <mxPoint x="-248" y="490" as="targetPoint" />
          </mxGeometry>
        </mxCell>
        <mxCell id="zBG6iMeN6bACDsRi_Z72-33" value="hanoverian" style="swimlane;fontSize=19;" vertex="1" parent="WIyWlLk6GJQsqaUBKTNV-1">
          <mxGeometry x="-448" y="546" width="266" height="224" as="geometry" />
        </mxCell>
        <mxCell id="zBG6iMeN6bACDsRi_Z72-34" value="&lt;span style=&quot;color: rgb(0, 0, 0); font-family: Nunito, sans-serif; font-size: 16px; font-style: normal; font-variant-ligatures: normal; font-variant-caps: normal; font-weight: 400; letter-spacing: -0.64px; orphans: 2; text-align: left; text-indent: 0px; text-transform: none; widows: 2; word-spacing: 0px; -webkit-text-stroke-width: 0px; background-color: rgb(255, 255, 255); text-decoration-thickness: initial; text-decoration-style: initial; text-decoration-color: initial; float: none; display: inline !important;&quot;&gt;getDosage (horse,hanoverian)&lt;/span&gt;" style="text;html=1;strokeColor=none;fillColor=none;align=center;verticalAlign=middle;whiteSpace=wrap;rounded=0;fontSize=19;" vertex="1" parent="zBG6iMeN6bACDsRi_Z72-33">
          <mxGeometry x="20" y="144" width="232" height="30" as="geometry" />
        </mxCell>
        <mxCell id="zBG6iMeN6bACDsRi_Z72-35" value="&lt;span style=&quot;color: rgb(0, 0, 0); font-family: Nunito, sans-serif; font-size: 16px; font-style: normal; font-variant-ligatures: normal; font-variant-caps: normal; font-weight: 400; letter-spacing: -0.64px; orphans: 2; text-align: left; text-indent: 0px; text-transform: none; widows: 2; word-spacing: 0px; -webkit-text-stroke-width: 0px; background-color: rgb(255, 255, 255); text-decoration-thickness: initial; text-decoration-style: initial; text-decoration-color: initial; float: none; display: inline !important;&quot;&gt;getFeedSchedule (horse,hanoverian)&lt;/span&gt;" style="text;html=1;strokeColor=none;fillColor=none;align=center;verticalAlign=middle;whiteSpace=wrap;rounded=0;fontSize=19;" vertex="1" parent="zBG6iMeN6bACDsRi_Z72-33">
          <mxGeometry y="174" width="252" height="30" as="geometry" />
        </mxCell>
        <mxCell id="zBG6iMeN6bACDsRi_Z72-43" style="edgeStyle=none;rounded=0;orthogonalLoop=1;jettySize=auto;html=1;exitX=0.5;exitY=0;exitDx=0;exitDy=0;fontSize=19;startArrow=none;startFill=0;endArrow=none;endFill=0;" edge="1" parent="WIyWlLk6GJQsqaUBKTNV-1" source="zBG6iMeN6bACDsRi_Z72-49">
          <mxGeometry relative="1" as="geometry">
            <mxPoint x="-634" y="490" as="targetPoint" />
          </mxGeometry>
        </mxCell>
        <mxCell id="zBG6iMeN6bACDsRi_Z72-36" value="clydesdale" style="swimlane;fontSize=19;" vertex="1" parent="WIyWlLk6GJQsqaUBKTNV-1">
          <mxGeometry x="-734" y="546" width="258" height="224" as="geometry" />
        </mxCell>
        <mxCell id="zBG6iMeN6bACDsRi_Z72-37" value="&lt;span style=&quot;color: rgb(0, 0, 0); font-family: Nunito, sans-serif; font-size: 16px; font-style: normal; font-variant-ligatures: normal; font-variant-caps: normal; font-weight: 400; letter-spacing: -0.64px; orphans: 2; text-align: left; text-indent: 0px; text-transform: none; widows: 2; word-spacing: 0px; -webkit-text-stroke-width: 0px; background-color: rgb(255, 255, 255); text-decoration-thickness: initial; text-decoration-style: initial; text-decoration-color: initial; float: none; display: inline !important;&quot;&gt;getDosage (horse,clydesdale)&lt;/span&gt;" style="text;html=1;strokeColor=none;fillColor=none;align=center;verticalAlign=middle;whiteSpace=wrap;rounded=0;fontSize=19;" vertex="1" parent="zBG6iMeN6bACDsRi_Z72-36">
          <mxGeometry x="14" y="126" width="238" height="48" as="geometry" />
        </mxCell>
        <mxCell id="zBG6iMeN6bACDsRi_Z72-38" value="&lt;span style=&quot;color: rgb(0, 0, 0); font-family: Nunito, sans-serif; font-size: 16px; font-style: normal; font-variant-ligatures: normal; font-variant-caps: normal; font-weight: 400; letter-spacing: -0.64px; orphans: 2; text-align: left; text-indent: 0px; text-transform: none; widows: 2; word-spacing: 0px; -webkit-text-stroke-width: 0px; background-color: rgb(255, 255, 255); text-decoration-thickness: initial; text-decoration-style: initial; text-decoration-color: initial; float: none; display: inline !important;&quot;&gt;getFeedSchedule (horse,clydesdale)&lt;/span&gt;" style="text;html=1;strokeColor=none;fillColor=none;align=center;verticalAlign=middle;whiteSpace=wrap;rounded=0;fontSize=19;" vertex="1" parent="zBG6iMeN6bACDsRi_Z72-36">
          <mxGeometry y="174" width="252" height="30" as="geometry" />
        </mxCell>
        <mxCell id="zBG6iMeN6bACDsRi_Z72-47" style="edgeStyle=none;rounded=0;orthogonalLoop=1;jettySize=auto;html=1;exitX=0.25;exitY=0;exitDx=0;exitDy=0;fontSize=19;startArrow=none;startFill=0;endArrow=none;endFill=0;" edge="1" parent="WIyWlLk6GJQsqaUBKTNV-1" source="zBG6iMeN6bACDsRi_Z72-39">
          <mxGeometry relative="1" as="geometry">
            <mxPoint x="-985.6470588235293" y="490" as="targetPoint" />
          </mxGeometry>
        </mxCell>
        <mxCell id="zBG6iMeN6bACDsRi_Z72-39" value="halfinger" style="swimlane;fontSize=19;startSize=18;" vertex="1" parent="WIyWlLk6GJQsqaUBKTNV-1">
          <mxGeometry x="-1050" y="546" width="266" height="224" as="geometry" />
        </mxCell>
        <mxCell id="zBG6iMeN6bACDsRi_Z72-40" value="&lt;span style=&quot;color: rgb(0, 0, 0); font-family: Nunito, sans-serif; font-size: 16px; font-style: normal; font-variant-ligatures: normal; font-variant-caps: normal; font-weight: 400; letter-spacing: -0.64px; orphans: 2; text-align: left; text-indent: 0px; text-transform: none; widows: 2; word-spacing: 0px; -webkit-text-stroke-width: 0px; background-color: rgb(255, 255, 255); text-decoration-thickness: initial; text-decoration-style: initial; text-decoration-color: initial; float: none; display: inline !important;&quot;&gt;getDosage (horse,halfinger)&lt;/span&gt;" style="text;html=1;strokeColor=none;fillColor=none;align=center;verticalAlign=middle;whiteSpace=wrap;rounded=0;fontSize=19;" vertex="1" parent="zBG6iMeN6bACDsRi_Z72-39">
          <mxGeometry x="17" y="144" width="190" height="30" as="geometry" />
        </mxCell>
        <mxCell id="zBG6iMeN6bACDsRi_Z72-55" style="edgeStyle=none;rounded=0;orthogonalLoop=1;jettySize=auto;html=1;fontSize=19;startArrow=none;startFill=0;endArrow=classic;endFill=1;" edge="1" parent="zBG6iMeN6bACDsRi_Z72-39" source="zBG6iMeN6bACDsRi_Z72-41" target="zBG6iMeN6bACDsRi_Z72-40">
          <mxGeometry relative="1" as="geometry" />
        </mxCell>
        <mxCell id="zBG6iMeN6bACDsRi_Z72-41" value="&lt;span style=&quot;color: rgb(0, 0, 0); font-family: Nunito, sans-serif; font-size: 16px; font-style: normal; font-variant-ligatures: normal; font-variant-caps: normal; font-weight: 400; letter-spacing: -0.64px; orphans: 2; text-align: left; text-indent: 0px; text-transform: none; widows: 2; word-spacing: 0px; -webkit-text-stroke-width: 0px; background-color: rgb(255, 255, 255); text-decoration-thickness: initial; text-decoration-style: initial; text-decoration-color: initial; float: none; display: inline !important;&quot;&gt;getFeedSchedule (horse,halfinger)&lt;/span&gt;" style="text;html=1;strokeColor=none;fillColor=none;align=center;verticalAlign=middle;whiteSpace=wrap;rounded=0;fontSize=19;" vertex="1" parent="zBG6iMeN6bACDsRi_Z72-39">
          <mxGeometry x="-14" y="174" width="280" height="50" as="geometry" />
        </mxCell>
        <mxCell id="zBG6iMeN6bACDsRi_Z72-46" value="" style="endArrow=none;html=1;rounded=0;fontSize=19;" edge="1" parent="WIyWlLk6GJQsqaUBKTNV-1">
          <mxGeometry width="50" height="50" relative="1" as="geometry">
            <mxPoint x="-980" y="490" as="sourcePoint" />
            <mxPoint x="-252" y="490" as="targetPoint" />
          </mxGeometry>
        </mxCell>
        <mxCell id="zBG6iMeN6bACDsRi_Z72-51" style="edgeStyle=none;rounded=0;orthogonalLoop=1;jettySize=auto;html=1;exitX=0.5;exitY=0;exitDx=0;exitDy=0;entryX=0.614;entryY=1.2;entryDx=0;entryDy=0;entryPerimeter=0;fontSize=19;startArrow=none;startFill=0;endArrow=classic;endFill=1;" edge="1" parent="WIyWlLk6GJQsqaUBKTNV-1" source="zBG6iMeN6bACDsRi_Z72-49" target="zBG6iMeN6bACDsRi_Z72-30">
          <mxGeometry relative="1" as="geometry" />
        </mxCell>
        <mxCell id="zBG6iMeN6bACDsRi_Z72-49" value="Extends" style="text;html=1;strokeColor=none;fillColor=none;align=center;verticalAlign=middle;whiteSpace=wrap;rounded=0;fontSize=19;" vertex="1" parent="WIyWlLk6GJQsqaUBKTNV-1">
          <mxGeometry x="-664" y="490" width="60" height="30" as="geometry" />
        </mxCell>
        <mxCell id="zBG6iMeN6bACDsRi_Z72-50" value="" style="edgeStyle=none;rounded=0;orthogonalLoop=1;jettySize=auto;html=1;exitX=0.5;exitY=0;exitDx=0;exitDy=0;fontSize=19;startArrow=none;startFill=0;endArrow=none;endFill=0;" edge="1" parent="WIyWlLk6GJQsqaUBKTNV-1" source="zBG6iMeN6bACDsRi_Z72-36" target="zBG6iMeN6bACDsRi_Z72-49">
          <mxGeometry relative="1" as="geometry">
            <mxPoint x="-634.0000000000002" y="490" as="targetPoint" />
            <mxPoint x="-634.0000000000002" y="546" as="sourcePoint" />
          </mxGeometry>
        </mxCell>
        <mxCell id="zBG6iMeN6bACDsRi_Z72-65" value="mouse" style="swimlane;fontSize=19;" vertex="1" parent="WIyWlLk6GJQsqaUBKTNV-1">
          <mxGeometry x="76" y="560" width="266" height="224" as="geometry" />
        </mxCell>
        <mxCell id="zBG6iMeN6bACDsRi_Z72-66" value="&lt;span style=&quot;color: rgb(0, 0, 0); font-family: Nunito, sans-serif; font-size: 16px; font-style: normal; font-variant-ligatures: normal; font-variant-caps: normal; font-weight: 400; letter-spacing: -0.64px; orphans: 2; text-align: left; text-indent: 0px; text-transform: none; widows: 2; word-spacing: 0px; -webkit-text-stroke-width: 0px; background-color: rgb(255, 255, 255); text-decoration-thickness: initial; text-decoration-style: initial; text-decoration-color: initial; float: none; display: inline !important;&quot;&gt;getDosage (reptiles,mouse)&lt;/span&gt;" style="text;html=1;strokeColor=none;fillColor=none;align=center;verticalAlign=middle;whiteSpace=wrap;rounded=0;fontSize=19;" vertex="1" parent="zBG6iMeN6bACDsRi_Z72-65">
          <mxGeometry x="20" y="144" width="232" height="30" as="geometry" />
        </mxCell>
        <mxCell id="zBG6iMeN6bACDsRi_Z72-67" value="&lt;span style=&quot;color: rgb(0, 0, 0); font-family: Nunito, sans-serif; font-size: 16px; font-style: normal; font-variant-ligatures: normal; font-variant-caps: normal; font-weight: 400; letter-spacing: -0.64px; orphans: 2; text-align: left; text-indent: 0px; text-transform: none; widows: 2; word-spacing: 0px; -webkit-text-stroke-width: 0px; background-color: rgb(255, 255, 255); text-decoration-thickness: initial; text-decoration-style: initial; text-decoration-color: initial; float: none; display: inline !important;&quot;&gt;getFeedSchedule (reptiles,mouse)&lt;/span&gt;" style="text;html=1;strokeColor=none;fillColor=none;align=center;verticalAlign=middle;whiteSpace=wrap;rounded=0;fontSize=19;" vertex="1" parent="zBG6iMeN6bACDsRi_Z72-65">
          <mxGeometry y="174" width="252" height="30" as="geometry" />
        </mxCell>
        <mxCell id="zBG6iMeN6bACDsRi_Z72-68" value="beaver" style="swimlane;fontSize=19;" vertex="1" parent="WIyWlLk6GJQsqaUBKTNV-1">
          <mxGeometry x="602" y="560" width="266" height="224" as="geometry" />
        </mxCell>
        <mxCell id="zBG6iMeN6bACDsRi_Z72-69" value="&lt;span style=&quot;color: rgb(0, 0, 0); font-family: Nunito, sans-serif; font-size: 16px; font-style: normal; font-variant-ligatures: normal; font-variant-caps: normal; font-weight: 400; letter-spacing: -0.64px; orphans: 2; text-align: left; text-indent: 0px; text-transform: none; widows: 2; word-spacing: 0px; -webkit-text-stroke-width: 0px; background-color: rgb(255, 255, 255); text-decoration-thickness: initial; text-decoration-style: initial; text-decoration-color: initial; float: none; display: inline !important;&quot;&gt;getDosage (reptiles,beaver)&lt;/span&gt;" style="text;html=1;strokeColor=none;fillColor=none;align=center;verticalAlign=middle;whiteSpace=wrap;rounded=0;fontSize=19;" vertex="1" parent="zBG6iMeN6bACDsRi_Z72-68">
          <mxGeometry x="20" y="144" width="232" height="30" as="geometry" />
        </mxCell>
        <mxCell id="zBG6iMeN6bACDsRi_Z72-70" value="&lt;span style=&quot;color: rgb(0, 0, 0); font-family: Nunito, sans-serif; font-size: 16px; font-style: normal; font-variant-ligatures: normal; font-variant-caps: normal; font-weight: 400; letter-spacing: -0.64px; orphans: 2; text-align: left; text-indent: 0px; text-transform: none; widows: 2; word-spacing: 0px; -webkit-text-stroke-width: 0px; background-color: rgb(255, 255, 255); text-decoration-thickness: initial; text-decoration-style: initial; text-decoration-color: initial; float: none; display: inline !important;&quot;&gt;getFeedSchedule (reptiles,beaver)&lt;/span&gt;" style="text;html=1;strokeColor=none;fillColor=none;align=center;verticalAlign=middle;whiteSpace=wrap;rounded=0;fontSize=19;" vertex="1" parent="zBG6iMeN6bACDsRi_Z72-68">
          <mxGeometry y="174" width="252" height="30" as="geometry" />
        </mxCell>
        <mxCell id="zBG6iMeN6bACDsRi_Z72-85" style="edgeStyle=none;rounded=0;orthogonalLoop=1;jettySize=auto;html=1;exitX=0.5;exitY=0;exitDx=0;exitDy=0;entryX=1;entryY=0.75;entryDx=0;entryDy=0;fontSize=19;startArrow=none;startFill=0;endArrow=none;endFill=0;" edge="1" parent="WIyWlLk6GJQsqaUBKTNV-1" source="zBG6iMeN6bACDsRi_Z72-78" target="zBG6iMeN6bACDsRi_Z72-92">
          <mxGeometry relative="1" as="geometry" />
        </mxCell>
        <mxCell id="zBG6iMeN6bACDsRi_Z72-78" value="lion" style="swimlane;fontSize=19;" vertex="1" parent="WIyWlLk6GJQsqaUBKTNV-1">
          <mxGeometry x="1848" y="546" width="266" height="224" as="geometry" />
        </mxCell>
        <mxCell id="zBG6iMeN6bACDsRi_Z72-79" value="&lt;span style=&quot;color: rgb(0, 0, 0); font-family: Nunito, sans-serif; font-size: 16px; font-style: normal; font-variant-ligatures: normal; font-variant-caps: normal; font-weight: 400; letter-spacing: -0.64px; orphans: 2; text-align: left; text-indent: 0px; text-transform: none; widows: 2; word-spacing: 0px; -webkit-text-stroke-width: 0px; background-color: rgb(255, 255, 255); text-decoration-thickness: initial; text-decoration-style: initial; text-decoration-color: initial; float: none; display: inline !important;&quot;&gt;getDosage (felines,tiger)&lt;/span&gt;" style="text;html=1;strokeColor=none;fillColor=none;align=center;verticalAlign=middle;whiteSpace=wrap;rounded=0;fontSize=19;" vertex="1" parent="zBG6iMeN6bACDsRi_Z72-78">
          <mxGeometry x="20" y="144" width="232" height="30" as="geometry" />
        </mxCell>
        <mxCell id="zBG6iMeN6bACDsRi_Z72-80" value="&lt;span style=&quot;color: rgb(0, 0, 0); font-family: Nunito, sans-serif; font-size: 16px; font-style: normal; font-variant-ligatures: normal; font-variant-caps: normal; font-weight: 400; letter-spacing: -0.64px; orphans: 2; text-align: left; text-indent: 0px; text-transform: none; widows: 2; word-spacing: 0px; -webkit-text-stroke-width: 0px; background-color: rgb(255, 255, 255); text-decoration-thickness: initial; text-decoration-style: initial; text-decoration-color: initial; float: none; display: inline !important;&quot;&gt;getFeedSchedule (felines,tiger)&lt;/span&gt;" style="text;html=1;strokeColor=none;fillColor=none;align=center;verticalAlign=middle;whiteSpace=wrap;rounded=0;fontSize=19;" vertex="1" parent="zBG6iMeN6bACDsRi_Z72-78">
          <mxGeometry y="174" width="252" height="30" as="geometry" />
        </mxCell>
        <mxCell id="zBG6iMeN6bACDsRi_Z72-84" style="edgeStyle=none;rounded=0;orthogonalLoop=1;jettySize=auto;html=1;exitX=0.5;exitY=0;exitDx=0;exitDy=0;entryX=0;entryY=0.75;entryDx=0;entryDy=0;fontSize=19;startArrow=none;startFill=0;endArrow=none;endFill=0;" edge="1" parent="WIyWlLk6GJQsqaUBKTNV-1" source="zBG6iMeN6bACDsRi_Z72-81" target="zBG6iMeN6bACDsRi_Z72-92">
          <mxGeometry relative="1" as="geometry" />
        </mxCell>
        <mxCell id="zBG6iMeN6bACDsRi_Z72-81" value="tiger" style="swimlane;fontSize=19;startSize=23;" vertex="1" parent="WIyWlLk6GJQsqaUBKTNV-1">
          <mxGeometry x="1176" y="546" width="266" height="224" as="geometry" />
        </mxCell>
        <mxCell id="zBG6iMeN6bACDsRi_Z72-82" value="&lt;span style=&quot;color: rgb(0, 0, 0); font-family: Nunito, sans-serif; font-size: 16px; font-style: normal; font-variant-ligatures: normal; font-variant-caps: normal; font-weight: 400; letter-spacing: -0.64px; orphans: 2; text-align: left; text-indent: 0px; text-transform: none; widows: 2; word-spacing: 0px; -webkit-text-stroke-width: 0px; background-color: rgb(255, 255, 255); text-decoration-thickness: initial; text-decoration-style: initial; text-decoration-color: initial; float: none; display: inline !important;&quot;&gt;getDosage (felines,tiger)&lt;/span&gt;" style="text;html=1;strokeColor=none;fillColor=none;align=center;verticalAlign=middle;whiteSpace=wrap;rounded=0;fontSize=19;" vertex="1" parent="zBG6iMeN6bACDsRi_Z72-81">
          <mxGeometry x="20" y="144" width="232" height="30" as="geometry" />
        </mxCell>
        <mxCell id="zBG6iMeN6bACDsRi_Z72-83" value="&lt;span style=&quot;color: rgb(0, 0, 0); font-family: Nunito, sans-serif; font-size: 16px; font-style: normal; font-variant-ligatures: normal; font-variant-caps: normal; font-weight: 400; letter-spacing: -0.64px; orphans: 2; text-align: left; text-indent: 0px; text-transform: none; widows: 2; word-spacing: 0px; -webkit-text-stroke-width: 0px; background-color: rgb(255, 255, 255); text-decoration-thickness: initial; text-decoration-style: initial; text-decoration-color: initial; float: none; display: inline !important;&quot;&gt;getFeedSchedule (felines,tiger)&lt;/span&gt;" style="text;html=1;strokeColor=none;fillColor=none;align=center;verticalAlign=middle;whiteSpace=wrap;rounded=0;fontSize=19;" vertex="1" parent="zBG6iMeN6bACDsRi_Z72-81">
          <mxGeometry y="174" width="252" height="30" as="geometry" />
        </mxCell>
        <mxCell id="zBG6iMeN6bACDsRi_Z72-90" value="Extends" style="text;html=1;strokeColor=none;fillColor=none;align=center;verticalAlign=middle;whiteSpace=wrap;rounded=0;fontSize=19;" vertex="1" parent="WIyWlLk6GJQsqaUBKTNV-1">
          <mxGeometry x="462" y="490" width="60" height="44" as="geometry" />
        </mxCell>
        <mxCell id="zBG6iMeN6bACDsRi_Z72-91" style="edgeStyle=none;rounded=0;orthogonalLoop=1;jettySize=auto;html=1;exitX=0.5;exitY=1;exitDx=0;exitDy=0;fontSize=19;startArrow=classic;startFill=1;endArrow=none;endFill=0;" edge="1" parent="WIyWlLk6GJQsqaUBKTNV-1" source="zBG6iMeN6bACDsRi_Z72-75">
          <mxGeometry relative="1" as="geometry">
            <mxPoint x="471" y="512" as="targetPoint" />
          </mxGeometry>
        </mxCell>
        <mxCell id="zBG6iMeN6bACDsRi_Z72-92" value="Extends" style="text;html=1;strokeColor=none;fillColor=none;align=center;verticalAlign=middle;whiteSpace=wrap;rounded=0;fontSize=19;" vertex="1" parent="WIyWlLk6GJQsqaUBKTNV-1">
          <mxGeometry x="1582" y="490" width="60" height="37" as="geometry" />
        </mxCell>
      </root>
    </mxGraphModel>
  </diagram>
</mxfile>
